<?xml version="1.0" encoding="utf-8"?>
<!-- Generator: Adobe Illustrator 16.0.2, SVG Export Plug-In . SVG Version: 6.00 Build 0)  -->
<!DOCTYPE svg PUBLIC "-//W3C//DTD SVG 1.1//EN" "http://www.w3.org/Graphics/SVG/1.1/DTD/svg11.dtd">
<svg version="1.1" id="Capa_1" xmlns="http://www.w3.org/2000/svg" xmlns:xlink="http://www.w3.org/1999/xlink" x="0px" y="0px"
	 width="421.499px" height="421.499px" viewBox="-204.999 -51.5 421.499 421.499"
	 enable-background="new -204.999 -51.5 421.499 421.499" xml:space="preserve">
<linearGradient id="SVGID_1_" gradientUnits="userSpaceOnUse" x1="181.2949" y1="1349.4805" x2="600.1221" y2="1349.4805" gradientTransform="matrix(0.5859 0 0 0.5859 -217.7011 -637.6045)">
	<stop  offset="0" style="stop-color:#00FF99"/>
	<stop  offset="1" style="stop-color:#33CCFF"/>
</linearGradient>
<circle fill="none" stroke="url(#SVGID_1_)" stroke-width="10" stroke-miterlimit="10" cx="11.215" cy="153.056" r="119.766"/>
<linearGradient id="SVGID_2_" gradientUnits="userSpaceOnUse" x1="282.7031" y1="1349.4805" x2="498.7158" y2="1349.4805" gradientTransform="matrix(0.5859 0 0 0.5859 -217.7011 -637.6045)">
	<stop  offset="0" style="stop-color:#00FF99"/>
	<stop  offset="1" style="stop-color:#33CCFF"/>
</linearGradient>
<circle fill="url(#SVGID_2_)" cx="11.215" cy="153.056" r="63.281"/>
<linearGradient id="SVGID_3_" gradientUnits="userSpaceOnUse" x1="493.2158" y1="1203.4707" x2="573.8203" y2="1203.4707" gradientTransform="matrix(0.5859 0 0 0.5859 -217.7011 -637.6045)">
	<stop  offset="0" style="stop-color:#00FF99"/>
	<stop  offset="1" style="stop-color:#33CCFF"/>
</linearGradient>
<circle fill="url(#SVGID_3_)" cx="94.887" cy="67.509" r="23.613"/>
<linearGradient id="SVGID_4_" gradientUnits="userSpaceOnUse" x1="164.5938" y1="1388.9844" x2="214.3038" y2="1388.9844" gradientTransform="matrix(0.5859 0 0 0.5859 -217.7011 -637.6045)">
	<stop  offset="0" style="stop-color:#00FF99"/>
	<stop  offset="1" style="stop-color:#33CCFF"/>
</linearGradient>
<circle fill="url(#SVGID_4_)" cx="-106.676" cy="176.201" r="14.59"/>
<linearGradient id="SVGID_5_" gradientUnits="userSpaceOnUse" x1="69.7793" y1="1349.4805" x2="724.1406" y2="1349.4805" gradientTransform="matrix(0.5859 0 0 0.5859 -217.7011 -637.6045)">
	<stop  offset="0" style="stop-color:#00FF99"/>
	<stop  offset="1" style="stop-color:#33CCFF"/>
</linearGradient>
<circle fill="none" stroke="url(#SVGID_5_)" stroke-width="10" stroke-miterlimit="10" cx="14.878" cy="153.056" r="188.766"/>
<linearGradient id="SVGID_6_" gradientUnits="userSpaceOnUse" x1="557.2285" y1="1103.3809" x2="688.2832" y2="1103.3809" gradientTransform="matrix(0.5859 0 0 0.5859 -217.7011 -637.6045)">
	<stop  offset="0" style="stop-color:#00FF99"/>
	<stop  offset="1" style="stop-color:#33CCFF"/>
</linearGradient>
<path fill="url(#SVGID_6_)" d="M147.167-24.5c0.138,3.667,55.333,3.833,33.134,13.933c-10.598,4.821-17.635,11.255-17.635,16.901
	c0,20.554,22.666,55,13,55c-10.102,0-30.96-40.134-37.667-46.667c-6.938-6.761-32.666,21.167-28.833,10.833
	c3.66-9.867,18.833-25.667,18.5-30.667C126.56-21.763,113.69-39.549,118.5-42.5C124.834-46.386,146.586-39.893,147.167-24.5z"/>
<linearGradient id="SVGID_7_" gradientUnits="userSpaceOnUse" x1="40.5752" y1="1411.7402" x2="118.9247" y2="1411.7402" gradientTransform="matrix(0.5859 0 0 0.5859 -217.7011 -637.6045)">
	<stop  offset="0" style="stop-color:#00FF99"/>
	<stop  offset="1" style="stop-color:#33CCFF"/>
</linearGradient>
<circle fill="url(#SVGID_7_)" cx="-170.933" cy="189.534" r="22.995"/>
</svg>
